<?xml version="1.0" encoding="UTF-8" standalone="no"?>
<!-- Created with Inkscape (http://www.inkscape.org/) -->

<svg
   xmlns:dc="http://purl.org/dc/elements/1.1/"
   xmlns:cc="http://creativecommons.org/ns#"
   xmlns:rdf="http://www.w3.org/1999/02/22-rdf-syntax-ns#"
   xmlns:svg="http://www.w3.org/2000/svg"
   xmlns="http://www.w3.org/2000/svg"
   xmlns:sodipodi="http://sodipodi.sourceforge.net/DTD/sodipodi-0.dtd"
   xmlns:inkscape="http://www.inkscape.org/namespaces/inkscape"
   width="150"
   height="100"
   viewBox="0 0 150.00001 99.999997"
   id="svg6181"
   version="1.1"
   inkscape:version="0.91 r13725"
   sodipodi:docname="cliente02.svg">
  <defs
     id="defs6183" />
  <sodipodi:namedview
     id="base"
     pagecolor="#ffffff"
     bordercolor="#666666"
     borderopacity="1.0"
     inkscape:pageopacity="0.0"
     inkscape:pageshadow="2"
     inkscape:zoom="1"
     inkscape:cx="-152.14286"
     inkscape:cy="80"
     inkscape:document-units="px"
     inkscape:current-layer="layer1"
     showgrid="false"
     showguides="true"
     units="px"
     inkscape:window-width="1600"
     inkscape:window-height="838"
     inkscape:window-x="-8"
     inkscape:window-y="-8"
     inkscape:window-maximized="1" />
  <metadata
     id="metadata6186">
    <rdf:RDF>
      <cc:Work
         rdf:about="">
        <dc:format>image/svg+xml</dc:format>
        <dc:type
           rdf:resource="http://purl.org/dc/dcmitype/StillImage" />
        <dc:title></dc:title>
      </cc:Work>
    </rdf:RDF>
  </metadata>
  <g
     inkscape:label="Capa 1"
     inkscape:groupmode="layer"
     id="layer1"
     transform="translate(0,-952.36224)">
    <g
       id="g5338"
       transform="matrix(1.2500001,0,0,-1.2500002,852.33019,992.27765)">
      <path
         d="m 0,0 -13.855,0 0,-4.076 9.861,0 c -0.482,-5.716 -5.237,-8.153 -9.726,-8.153 -5.742,0 -10.754,4.518 -10.754,10.851 0,6.17 4.777,10.921 10.767,10.921 4.621,0 7.344,-2.946 7.344,-2.946 l 2.854,2.956 c 0,0 -3.663,4.078 -10.344,4.078 -8.507,0 -15.089,-7.18 -15.089,-14.936 0,-7.599 6.191,-15.01 15.306,-15.01 8.016,0 13.885,5.492 13.885,13.613 C 0.249,-0.989 0,0.001 0,0.001 L 0,0 Z"
         style="fill:#918f90;fill-opacity:1;fill-rule:nonzero;stroke:none"
         id="path5340"
         inkscape:connector-curvature="0" />
    </g>
    <g
       id="g5342"
       transform="matrix(1.2500001,0,0,-1.2500002,867.06044,993.31345)">
      <path
         d="m 0,0 c 2.772,0 5.398,-2.241 5.398,-5.852 0,-3.534 -2.615,-5.839 -5.411,-5.839 -3.071,0 -5.495,2.46 -5.495,5.867 C -5.508,-2.49 -3.115,0 0,0 m -0.056,3.781 c -5.636,0 -9.676,-4.407 -9.676,-9.546 0,-5.215 3.918,-9.704 9.742,-9.704 5.272,0 9.592,4.03 9.592,9.592 0,6.375 -5.025,9.658 -9.658,9.658"
         style="fill:#918f90;fill-opacity:1;fill-rule:nonzero;stroke:none"
         id="path5344"
         inkscape:connector-curvature="0" />
    </g>
    <g
       id="g5346"
       transform="matrix(1.2500001,0,0,-1.2500002,893.21558,993.31345)">
      <path
         d="m 0,0 c 2.772,0 5.398,-2.241 5.398,-5.852 0,-3.534 -2.615,-5.839 -5.411,-5.839 -3.071,0 -5.495,2.46 -5.495,5.867 C -5.508,-2.49 -3.115,0 0,0 m -0.056,3.781 c -5.636,0 -9.676,-4.407 -9.676,-9.546 0,-5.215 3.918,-9.704 9.742,-9.704 5.272,0 9.592,4.03 9.592,9.592 0,6.375 -5.025,9.658 -9.658,9.658"
         style="fill:#918f90;fill-opacity:1;fill-rule:nonzero;stroke:none"
         id="path5348"
         inkscape:connector-curvature="0" />
    </g>
    <g
       id="g5350"
       transform="matrix(1.2500001,0,0,-1.2500002,919.4137,993.31645)">
      <path
         d="m 0,0 c 2.536,0 5.141,-2.166 5.141,-5.864 0,-3.76 -2.599,-5.832 -5.197,-5.832 -2.758,0 -5.324,2.24 -5.324,5.796 0,3.695 2.665,5.9 5.38,5.9 z m -0.375,3.773 c -5.173,0 -9.239,-4.531 -9.239,-9.617 0,-5.793 4.714,-9.635 9.15,-9.635 2.743,0 4.202,1.089 5.279,2.339 l 0,-1.898 c 0,-3.321 -2.016,-5.309 -5.06,-5.309 -2.939,0 -4.414,2.186 -4.926,3.426 l -3.699,-1.546 c 1.312,-2.775 3.953,-5.668 8.656,-5.668 5.144,0 9.064,3.24 9.064,10.034 l 0,17.533 -4.035,0 0,-1.868 C 3.574,2.901 1.877,3.773 -0.374,3.773 l -0.001,0 z"
         style="fill:#918f90;fill-opacity:1;fill-rule:nonzero;stroke:none"
         id="path5352"
         inkscape:connector-curvature="0" />
    </g>
    <g
       id="g5354"
       transform="matrix(1.2500001,0,0,-1.2500002,952.66825,993.19875)">
      <path
         d="M 0,0 C 1.758,0 3.024,-0.935 3.561,-2.056 L -5.057,-5.658 C -5.428,-2.869 -2.786,0 0,0 m -0.168,3.702 c -4.88,0 -8.978,-3.883 -8.978,-9.612 0,-6.063 4.568,-9.658 9.447,-9.658 4.072,0 6.571,2.228 8.063,4.224 L 5.037,-9.13 c -0.864,-1.34 -2.307,-2.65 -4.716,-2.65 -2.706,0 -3.95,1.482 -4.721,2.917 l 12.906,5.355 -0.67,1.569 c -1.247,3.074 -4.155,5.64 -8.004,5.64 l 0,10e-4 z"
         style="fill:#918f90;fill-opacity:1;fill-rule:nonzero;stroke:none"
         id="path5356"
         inkscape:connector-curvature="0" />
    </g>
    <path
       d="m 933.84345,1011.944 4.94125,0 0,-35.46115 -4.94125,0 0,35.46115 z"
       style="fill:#918f90;fill-opacity:1;fill-rule:nonzero;stroke:none"
       id="path5358"
       inkscape:connector-curvature="0" />
    <g
       id="g6924"
       transform="matrix(0.95725171,0,0,0.95725171,-187.22491,43.229411)">
      <g
         transform="matrix(1.2500001,0,0,-1.2500002,336.30275,991.40575)"
         id="g5360">
        <path
           inkscape:connector-curvature="0"
           id="path5362"
           style="fill:#918f90;fill-opacity:1;fill-rule:evenodd;stroke:none"
           d="M 0,0 -0.117,0.293 C -0.293,0.763 -0.528,1.115 -0.88,1.349 L -1.995,1.584 C -2.347,1.408 -2.699,1.173 -2.875,0.763 -3.109,0.293 -3.109,-0.176 -2.992,-0.704 l 0.587,-1.173 0,-0.176 -0.47,0 c -0.879,0.469 -1.584,1.232 -2.17,2.17 -0.587,0.939 -0.939,1.995 -1.174,3.11 -0.058,0.058 -0.058,0.176 -0.058,0.176 l -2.112,0 c 0.117,-1.995 0.704,-3.931 1.701,-5.632 l 2.757,-4.635 c 0.177,-0.821 0.059,-1.76 -0.352,-2.874 l -4.576,-12.496 2.699,0 5.397,9.797 5.574,-9.914 2.581,0 -4.987,13.199 c -0.411,0.939 -0.528,1.877 -0.352,2.64 l 0.646,1.584 1.701,2.405 c 0.88,1.35 1.349,2.875 1.584,4.635 l -1.995,0 C 5.163,2.757 6.453,3.109 7.92,3.285 L 6.101,5.867 C 5.163,4.048 3.989,2.757 2.699,1.877 L 0,0 Z m 2.992,1.467 0.293,0.234 0.352,-0.059 0,-0.058 C 3.754,1.408 3.754,1.29 3.637,1.232 L 1.76,-0.117 c -0.176,0 -0.293,0 -0.352,0.117 L 1.349,0.117 C 1.291,0.235 1.291,0.293 1.408,0.411 L 2.992,1.467 Z M 0.117,-0.528 0.763,0 0.997,-0.469 C 1.291,-0.763 1.525,-0.821 1.819,-0.587 L 3.637,0.587 C 2.992,-0.88 1.936,-1.877 0.469,-2.405 L 0,-2.464 c -0.235,0.059 -0.352,0.117 -0.352,0.235 L 0,-1.584 l 0.117,0.469 0,0.587 z" />
      </g>
      <g
         transform="matrix(1.2500001,0,0,-1.2500002,255.12499,996.90575)"
         id="g5364">
        <path
           inkscape:connector-curvature="0"
           id="path5366"
           style="fill:#918f90;fill-opacity:1;fill-rule:evenodd;stroke:none"
           d="m 0,0 -5.221,-0.763 0,-3.637 1.642,0 c 0.294,1.643 1.35,2.464 3.227,2.464 1.936,0 2.874,-0.939 2.933,-2.757 l 0,-1.995 -4.869,-1.76 c -2.816,-0.41 -4.224,-2.288 -4.224,-5.514 0,-2.054 0.645,-3.344 1.936,-3.989 l 2.405,-0.353 c 2.406,0 4.048,0.88 4.928,2.582 l 0,-1.995 6.629,0 0,1.526 -2.288,0 0,11.908 C 7.098,-1.349 4.752,0.117 0,0 m 16.837,-0.528 -1.936,0 -5.221,-1.349 0,-1.115 2.64,0 0,-13.199 -2.112,0 0,-1.643 9.327,0 0,1.643 -2.522,0 0,10.853 c 0.821,1.29 1.936,1.935 3.285,1.877 1.408,0 2.112,-0.411 2.171,-1.115 l 1.29,0 0,4.224 c -2.464,0.821 -4.81,-0.117 -6.922,-2.757 l 0,2.581 z m 7.626,-2.464 2.581,0 0,-13.199 -2.111,0 0,-1.643 9.386,0 0,1.643 -2.64,0 0,15.663 -1.995,0 -5.221,-1.349 0,-1.115 z m 10.032,1.115 0,-1.115 2.64,0 0,-13.199 -2.171,0 0,-1.643 9.387,0 0,1.643 -2.523,0 0,10.853 c 1.76,1.701 3.403,2.463 4.811,2.405 0.938,-0.059 1.525,-0.352 1.583,-0.998 l 0,-12.26 -2.111,0 0,-1.643 9.386,0 0,1.643 -2.522,0 0,10.853 c 0,3.343 -1.467,5.045 -4.342,4.986 -2.053,0.469 -4.4,-0.587 -7.04,-3.168 l 0,2.992 -1.936,0 -5.162,-1.349 z m -53.796,8.213 c -1.29,0.586 -3.168,0.938 -5.749,1.114 -3.872,0.118 -7.099,-0.821 -9.797,-2.933 -2.992,-2.346 -4.576,-5.632 -4.576,-9.738 0,-4.165 1.466,-7.509 4.282,-9.915 2.64,-2.17 5.691,-3.226 9.328,-3.226 4.459,0 7.509,1.056 9.269,3.285 l -1.701,1.819 c -0.528,-0.587 -1.467,-1.174 -2.64,-1.643 -1.349,-0.528 -2.757,-0.821 -4.165,-0.821 -1.995,0 -3.872,0.763 -5.573,2.229 -2.171,1.995 -3.286,4.576 -3.286,7.92 0,3.52 0.821,6.277 2.523,8.213 1.525,1.818 3.578,2.64 6.16,2.64 3.285,0 5.221,-1.349 5.925,-4.224 l 2.288,0 0,6.512 -2.288,0 0,-1.232 z M 34.26,5.338 30.858,6.688 27.338,1.936 28.922,1.291 34.26,5.338 Z m -44.879,4.694 -5.514,-1.35 0,-1.525 2.347,0 0,-23.466 -1.995,0 0,-1.525 8.858,0 0,1.643 -2.229,0 0,26.223 -1.467,0 z m 9.211,-20.592 c 0.821,1.174 2.171,1.819 3.93,2.054 l 0,-5.691 c -0.469,-1.115 -1.466,-1.643 -2.874,-1.643 -0.939,0 -1.525,0.352 -1.819,1.056 l -0.117,1.878 c 0,0.88 0.352,1.642 0.88,2.346" />
      </g>
    </g>
    <g
       id="g5368"
       transform="matrix(1.2500001,0,0,-1.2500002,549.27303,1013.0375)">
      <path
         d="M 0,0 -58.57,-14.122 -117.141,0 0,0 Z"
         style="fill:#918f90;fill-opacity:1;fill-rule:evenodd;stroke:none"
         id="path5370"
         inkscape:connector-curvature="0" />
    </g>
    <g
       id="g5372"
       transform="matrix(1.2500001,0,0,-1.2500002,550.0169,970.28345)">
      <path
         d="M 0,0 0.771,0 C 1.165,0 1.593,-0.077 1.593,-0.573 1.593,-1.165 1.121,-1.19 0.608,-1.19 L 0,-1.19 0,0 Z m -0.582,-3.271 0.582,0 0,1.61 0.616,0 1.019,-1.61 0.626,0 -1.071,1.654 c 0.557,0.059 0.985,0.341 0.985,1.018 0,0.719 -0.419,1.07 -1.31,1.07 l -1.447,0 0,-3.742 z m -1.397,1.885 c 0,1.532 1.149,2.714 2.647,2.714 1.482,0 2.628,-1.182 2.628,-2.714 0,-1.567 -1.146,-2.749 -2.628,-2.749 -1.498,0 -2.647,1.182 -2.647,2.749 m -0.582,0 c 0,-1.842 1.474,-3.221 3.229,-3.221 1.746,0 3.211,1.379 3.211,3.221 0,1.807 -1.465,3.185 -3.211,3.185 -1.755,0 -3.229,-1.378 -3.229,-3.185"
         style="fill:#918f90;fill-opacity:1;fill-rule:evenodd;stroke:none"
         id="path5374"
         inkscape:connector-curvature="0" />
    </g>
    <g
       id="g5376"
       transform="matrix(1.2500001,0,0,-1.2500002,404.05851,1006.3785)">
      <path
         d="m 0,0 15.978,0 0,3.005 -9.625,0 0,11.615 7.999,0 0,3.005 -7.999,0 0,10.045 9.35,0 0,3.005 L 0,30.675 0,0 Z"
         style="fill:#918f90;fill-opacity:1;fill-rule:evenodd;stroke:none"
         id="path5378"
         inkscape:connector-curvature="0" />
    </g>
    <g
       id="g5380"
       transform="matrix(1.2500001,0,0,-1.2500002,494.2764,993.03775)">
      <path
         d="m 0,0 c 0.04,0.852 0.04,1.077 0.04,1.616 0,6.233 -3.381,9.776 -8.683,9.776 -5.707,0 -9.613,-4.26 -9.613,-11.078 0,-7.264 3.987,-11.569 10.181,-11.569 2.347,0 4.148,0.492 6.455,2.017 l 0.405,2.915 c -1.82,-1.479 -3.42,-2.019 -5.079,-2.019 -3.902,0 -6.054,3.223 -6.054,8.342 L 0,0 Z m -12.348,2.268 c 0.146,4.2 1.366,7.195 3.746,7.195 2.099,0 3.136,-2.877 3.219,-7.195 l -6.965,0 z"
         style="fill:#918f90;fill-opacity:1;fill-rule:evenodd;stroke:none"
         id="path5382"
         inkscape:connector-curvature="0" />
    </g>
    <g
       id="g5384"
       transform="matrix(1.2500001,0,0,-1.2500002,471.45465,980.97745)">
      <path
         d="m 0,0 c -1.903,1.289 -4.161,1.653 -6.043,1.653 -6.165,0 -10.358,-4.619 -10.358,-11.614 0,-6.593 4.08,-10.854 9.993,-10.854 2.166,0 3.68,0.206 5.5,1.418 l 0.567,2.825 c -1.579,-1.154 -2.695,-1.373 -4.205,-1.373 -3.623,0 -5.744,2.87 -5.744,8.386 0,5.562 1.866,8.714 4.801,8.844 2.466,0.108 3.627,-1.088 4.599,-1.99 L 0,0 Z"
         style="fill:#918f90;fill-opacity:1;fill-rule:evenodd;stroke:none"
         id="path5386"
         inkscape:connector-curvature="0" />
    </g>
    <g
       id="g5388"
       transform="matrix(1.2500001,0,0,-1.2500002,512.3174,979.02295)">
      <path
         d="m 0,0 c -0.446,0.045 -0.649,0.045 -0.931,0.045 -2.509,0 -4.209,-1.704 -5.869,-5.874 l 0,5.426 -5.382,0 0,-21.482 5.382,0 0,11.482 c 0,2.511 1.861,4.574 4.168,4.574 0.77,0 1.419,-0.115 2.389,-0.674 L 0,0 Z"
         style="fill:#918f90;fill-opacity:1;fill-rule:evenodd;stroke:none"
         id="path5390"
         inkscape:connector-curvature="0" />
    </g>
    <g
       id="g5392"
       transform="matrix(1.2500001,0,0,-1.2500002,441.39189,1006.3785)">
      <path
         d="m 0,0 5.383,0 0,21.482 -5.383,0 0,-12.244 c 0,-3.772 -1.109,-5.92 -3.545,-5.92 -2.355,0 -3.382,1.761 -3.382,4.447 l 0,13.717 -5.383,0 0,-14.314 c 0,-6.072 2.989,-7.573 6.337,-7.573 2.827,0 4.772,1.642 5.973,3.678 L 0,0 Z"
         style="fill:#918f90;fill-opacity:1;fill-rule:evenodd;stroke:none"
         id="path5394"
         inkscape:connector-curvature="0" />
    </g>
    <g
       id="g5396"
       transform="matrix(1.2500001,0,0,-1.2500002,526.30077,1006.3785)">
      <path
         d="m 0,0 5.383,0 0,11.783 c 0,5.849 2.17,6.379 3.424,6.379 1.639,0 3.221,-1.114 3.221,-5.109 l 0,-13.053 5.383,0 0,14.826 c 0,5.903 -3.521,7.148 -6.095,7.148 -2.308,0 -4.474,-1.332 -5.933,-3.722 l 0,3.23 L 0,21.482 0,0 Z"
         style="fill:#918f90;fill-opacity:1;fill-rule:evenodd;stroke:none"
         id="path5398"
         inkscape:connector-curvature="0" />
    </g>
    <path
       d="m 514.5259,968.03415 6.97375,0 0,6.9737 -6.97375,0 0,-6.9737 z"
       style="fill:#918f90;fill-opacity:1;fill-rule:evenodd;stroke:none"
       id="path5400"
       inkscape:connector-curvature="0" />
    <path
       d="m 514.47215,979.52665 7.08375,0 0,26.85235 -7.08375,0 0,-26.85235 z"
       style="fill:#918f90;fill-opacity:1;fill-rule:evenodd;stroke:none"
       id="path5402"
       inkscape:connector-curvature="0" />
    <g
       id="g5404"
       transform="matrix(1.2500001,0,0,-1.2500002,-218.71815,1005.9566)">
      <path
         d="m 0,0 0,-4.736 -0.156,0.365 -1.991,-5.621 2.147,0 0,-3.084 -3.253,0 -0.169,-0.533 -0.104,-0.547 -0.039,-0.559 0.026,-0.56 0.091,-0.559 0.156,-0.534 0.338,-0.949 -5.88,0 -0.235,0.247 0.417,0.338 0.403,0.364 0.351,0.391 0.339,0.429 0.286,0.456 0.273,0.494 0.169,0.325 4.463,11.411 0.078,0.234 0.104,0.325 0.065,0.39 0.026,0.391 -0.052,0.39 -0.117,0.378 L -2.42,-0.377 -2.641,0 0,0 Z m 0,17.356 0,-6.726 -0.156,0.195 -0.273,0.234 -0.287,0.221 -0.325,0.209 -0.39,0.221 -2.03,1.015 -0.416,0.234 -0.482,0.273 -0.455,0.312 -0.442,0.326 -0.43,0.351 -0.377,0.403 -0.364,0.43 -0.313,0.455 -0.208,0.416 -0.182,0.43 -0.13,0.455 -0.117,0.507 -0.052,0.521 0,0.52 0.052,0.521 0.078,0.507 0.143,0.508 0.169,0.481 0.208,0.416 0.234,0.404 0.261,0.377 0.325,0.364 0.351,0.326 0.378,0.299 0.442,0.286 0.442,0.247 0.534,0.234 0.533,0.196 0.56,0.156 0.572,0.117 0.573,0.065 0.572,0.026 0.664,-0.013 0.338,-0.026 0,-2.914 -0.026,0.012 -0.364,0.026 -0.352,0 -0.351,-0.065 -0.234,-0.078 -0.221,-0.091 -0.209,-0.13 -0.182,-0.156 -0.143,-0.169 -0.104,-0.182 -0.052,-0.338 0.026,-0.365 0.117,-0.377 0.208,-0.338 0.274,-0.3 0.364,-0.312 0.455,-0.286 L -0.13,17.422 0,17.356 Z m -7.286,-6.349 0,-4.371 0.507,-0.326 0.534,-0.299 0.546,-0.273 0.586,-0.234 0.585,-0.209 0.599,-0.156 0.611,-0.117 0.625,-0.078 0.624,-0.026 0.638,0 0.676,0.013 0.69,0.078 0.065,0 0,3.5 L -0.195,8.34 -0.494,8.145 -0.82,8.028 -1.158,7.95 -1.535,7.937 -1.887,7.95 -2.251,8.002 -2.602,8.08 -2.966,8.197 -3.344,8.34 -3.773,8.522 -4.242,8.756 -4.71,9.03 l -0.572,0.377 -0.56,0.39 -0.533,0.417 -0.521,0.442 -0.39,0.351 z M 21.025,0 l 0,-2.563 -0.195,0.026 -0.455,0.013 -1.588,0.013 0,-5.035 1.835,0 0.403,0.026 0,-3.656 -0.169,0.156 -0.39,0.26 -0.429,0.182 -0.456,0.117 -0.468,0.039 -0.326,0 0,-3.643 0.053,-0.507 0.104,-0.481 0.169,-0.482 0.221,-0.442 0.286,-0.43 0.338,-0.416 0.417,-0.494 -17.279,0 -0.208,0.247 0.286,0.325 0.222,0.364 0.182,0.378 0.104,0.416 0.065,0.429 -0.013,0.43 -0.065,0.416 -0.143,0.404 -0.182,0.39 -0.182,0.442 -3.162,0 0,3.084 2.147,0 L 0,-4.736 0,0 l 3.864,0 5.53,-13.037 0.247,-0.585 0.325,-0.677 0.378,-0.637 0.429,-0.625 0.481,-0.585 0.521,-0.547 0.481,0.521 0.299,0.364 0.248,0.39 0.208,0.43 0.169,0.442 0.104,0.455 0.052,0.469 0,0.468 0,9.576 -0.026,0.547 -0.065,0.546 -0.143,0.559 -0.208,0.547 -0.274,0.494 -0.351,0.456 L 11.892,0 21.025,0 Z m 0,23.016 0,-3.76 -0.052,0.026 -0.507,0.247 -0.534,0.209 -0.533,0.182 -0.481,0.13 -0.508,0.104 -0.507,0.065 -0.508,0.026 0,-10.175 0.04,-0.481 0.078,-0.468 0.117,-0.456 0.156,-0.455 0.195,-0.442 0.312,-0.534 0.325,-0.52 0.352,-0.521 0.377,-0.481 -8.808,0 -0.235,0.247 0.313,0.351 0.286,0.365 0.247,0.39 0.247,0.403 0.131,0.352 0.104,0.364 0.091,0.364 0.039,0.378 0.013,0.377 L 11.801,20.31 11.306,20.284 10.825,20.232 10.344,20.141 9.875,20.05 9.42,19.907 8.951,19.738 8.522,19.542 8.093,19.334 7.663,19.1 7.26,18.84 6.883,18.553 l 0.442,4.463 13.7,0 z M 0,20.935 0.325,20.87 0.846,20.7 1.34,20.492 l 0.482,-0.26 0.455,-0.273 0.442,-0.3 0.573,-0.429 0.572,-0.468 0.534,-0.469 0.52,-0.507 0,4.515 -0.716,0.377 -0.611,0.286 -0.638,0.247 -0.637,0.209 -0.651,0.169 -0.65,0.13 L 0.338,23.823 0,23.849 0,20.935 Z m 0,-15.926 0.611,0.117 0.664,0.156 0.573,0.196 0.533,0.221 0.533,0.26 0.482,0.299 0.455,0.325 0.429,0.378 0.378,0.364 0.351,0.39 0.325,0.43 0.26,0.429 0.235,0.443 0.195,0.481 0.13,0.533 0.078,0.56 0,0.572 L 6.167,11.71 6.024,12.256 5.829,12.777 5.647,13.128 5.425,13.492 5.165,13.844 4.84,14.208 4.463,14.585 4.033,14.95 3.552,15.301 3.045,15.652 1.965,16.316 0.872,16.914 0,17.356 0,10.63 0.065,10.539 0.273,10.253 0.351,10.083 0.416,9.914 0.468,9.732 0.481,9.55 0.468,9.342 0.416,9.134 0.338,8.939 0.221,8.756 0.065,8.574 0,8.509 0,5.009 Z m 21.025,14.247 0,3.76 0.937,0 0.573,-4.606 -1.067,0.625 -0.443,0.221 z m 11.307,-36.105 -0.13,0.156 -1.158,1.275 -1.132,1.314 -2.746,3.565 -0.286,0.365 -0.299,0.351 -0.338,0.299 -0.378,0.274 -0.403,0.234 0.495,0.169 0.455,0.208 0.455,0.247 0.417,0.299 0.39,0.326 0.364,0.39 0.313,0.429 0.273,0.469 0.221,0.507 0.169,0.534 0.078,0.546 0.026,0.572 -0.065,0.547 -0.13,0.546 -0.208,0.521 -0.26,0.507 -0.404,0.547 -0.481,0.468 -0.547,0.403 -0.585,0.313 -0.625,0.247 -0.663,0.156 -0.664,0.065 -0.689,0 -2.772,0 0,-2.563 0.235,-0.039 0.416,-0.13 0.403,-0.195 0.339,-0.274 0.299,-0.312 0.234,-0.377 0.169,-0.351 0.104,-0.378 0.039,-0.39 -0.026,-0.39 -0.078,-0.378 -0.169,-0.364 -0.273,-0.416 -0.351,-0.391 -0.404,-0.286 -0.416,-0.182 -0.429,-0.104 -0.092,0 0,-3.656 0.182,-0.169 0.274,-0.274 0.299,-0.338 0.352,-0.455 0.507,-0.716 1.743,-2.524 0.286,-0.377 0.326,-0.352 0.364,-0.299 0.416,-0.247 0.443,-0.195 0.468,-0.117 0.469,-0.078 0.481,0 4.697,0 0,0.468 z m 0,16.615 0,-3.955 -0.417,-0.3 0.417,4.255 z m 0,23.263 0,-2.732 -1.679,0 0,-3.474 1.679,0 0,-3.214 -0.794,0.065 -0.885,0.027 0,-5.036 1.679,0 0,-2.94 -8.561,0 -0.208,0.234 0.403,0.312 0.364,0.378 0.312,0.429 0.248,0.455 0.208,0.534 0.156,0.533 0.104,0.56 0.026,0.572 0.026,9.316 -0.026,0.937 -0.091,0.702 -0.169,0.586 -0.208,0.494 -0.287,0.469 -0.338,0.429 -0.39,0.364 8.431,0 z m 0,-2.732 0,2.732 6.219,0 0.546,-4.775 -0.468,0.391 -0.494,0.338 -0.521,0.299 -0.546,0.26 -0.729,0.313 -0.65,0.208 -0.677,0.143 -0.689,0.078 -0.69,0.013 -1.301,0 z m 0,-6.688 0,3.214 3.942,0 0.377,-4.28 -0.806,0.286 -0.833,0.26 -0.833,0.208 -0.858,0.169 -0.885,0.13 -0.104,0.013 z m 0,-7.884 0,2.94 2.823,0 0.625,0.052 0.676,0.078 0.69,0.157 0.572,0.169 0.495,0.221 0.468,0.26 0.455,0.299 0.417,0.339 0.299,-0.274 -0.546,-4.241 -6.974,0 z m 0,-9.914 0.169,0.117 0.625,0.364 0.65,0.312 0.742,0.273 0.754,0.209 0.768,0.117 0.794,0.065 -0.014,-11.007 0,-0.456 -0.064,-0.455 -0.118,-0.442 -0.182,-0.417 -0.221,-0.403 -0.442,-0.599 -0.456,-0.572 0.248,-0.247 8.795,0 -0.456,0.585 -0.468,0.69 -0.286,0.468 -0.221,0.495 -0.209,0.507 -0.156,0.52 -0.117,0.534 -0.039,0.572 0,10.162 0.625,-0.039 0.624,-0.091 0.625,-0.156 0.598,-0.183 0.69,-0.299 0.663,-0.325 0.664,-0.351 0.638,-0.391 -0.573,4.619 -14.624,-0.013 -0.026,-0.208 0,-3.955 z m 0,-13.128 0,0.468 0.429,-0.468 -0.429,0 z m 25.839,17.994 0,-2.967 -0.117,0 -0.52,-0.052 -0.508,-0.117 -0.429,-0.169 -0.416,-0.234 -0.378,-0.273 -0.338,-0.326 -0.481,-0.598 -0.404,-0.638 -0.325,-0.689 -0.26,-0.716 -0.169,-0.729 -0.13,-0.767 -0.052,-0.781 0.013,-0.78 0.091,-0.768 0.143,-0.768 0.208,-0.755 0.299,-0.702 0.364,-0.677 0.313,-0.429 0.325,-0.416 0.377,-0.378 0.365,-0.286 0.403,-0.234 0.416,-0.182 0.417,-0.117 0.403,-0.065 0.39,-0.013 0,-2.98 -0.52,0 -0.586,0.052 -0.585,0.065 -0.573,0.104 -0.572,0.13 -0.573,0.17 -0.637,0.247 -0.625,0.286 -0.611,0.338 -0.573,0.365 -0.598,0.429 -0.546,0.481 -0.521,0.521 -0.468,0.546 -0.443,0.573 -0.364,0.611 -0.325,0.625 -0.273,0.65 -0.209,0.677 -0.169,0.663 -0.117,0.69 -0.052,0.69 -0.013,0.689 0.052,0.69 0.104,0.676 0.143,0.677 0.208,0.65 0.261,0.651 0.325,0.663 0.39,0.625 0.429,0.599 0.482,0.559 0.52,0.52 0.547,0.469 0.572,0.442 0.612,0.39 0.676,0.365 0.703,0.312 0.742,0.26 0.754,0.195 0.755,0.144 0.794,0.091 0.767,0.026 0.117,0 z m 0,6.18 L 57.755,6.466 57.26,6.141 56.805,5.907 57.326,10.096 57.196,10.253 56.727,9.888 56.233,9.563 55.712,9.277 55.166,9.03 54.489,8.834 53.787,8.691 l -0.69,-0.039 -4.267,0 0,9.941 0.012,0.715 0.053,0.69 0.104,0.624 0.169,0.547 0.26,0.533 0.39,0.638 0.456,0.676 -8.418,0 0.468,-0.598 0.364,-0.547 0.235,-0.429 0.195,-0.52 0.156,-0.586 0.091,-0.651 0.013,-0.533 0.013,-0.559 -0.013,-9.004 0,-0.299 L 43.339,8.821 43.222,8.288 43.027,7.742 42.779,7.221 42.441,6.74 42.038,6.31 41.57,5.959 l 0.182,-0.247 16.419,0 0,1.145 z m 0,16.172 0,-0.676 -0.13,0.169 -0.468,0.507 0.598,0 z m 12.413,-40.346 8.288,0 -0.508,0.663 -0.26,0.404 -0.221,0.429 -0.182,0.429 -0.144,0.469 -0.104,0.468 -0.052,0.481 -0.013,0.482 0,9.029 0.013,0.521 0.065,0.533 0.104,0.534 0.144,0.52 0.195,0.508 0.234,0.494 0.273,0.468 0.312,0.443 0.339,0.429 -8.77,0 0.456,-0.455 0.338,-0.404 0.299,-0.455 0.247,-0.468 0.183,-0.508 0.117,-0.52 0.078,-0.534 0.026,-0.598 0,-0.508 0,-8.795 -0.026,-0.52 -0.078,-0.495 -0.117,-0.494 -0.17,-0.482 -0.221,-0.455 -0.26,-0.442 -0.273,-0.404 -0.456,-0.52 0.144,-0.247 z m -12.413,-0.612 0,2.98 0.039,-0.013 0.43,0.039 0.416,0.078 0.403,0.117 0.378,0.182 0.364,0.208 0.325,0.26 0.313,0.3 0.286,0.325 0.26,0.351 0.234,0.352 0.156,0.299 0.157,0.312 0.195,0.495 0.182,0.494 0.143,0.507 0.13,0.638 0.078,0.637 0.026,0.638 -0.013,0.65 -0.065,0.638 -0.104,0.637 -0.195,0.729 -0.26,0.69 -0.326,0.676 -0.325,0.547 -0.39,0.494 -0.43,0.442 -0.494,0.404 -0.494,0.247 -0.508,0.169 -0.507,0.091 -0.404,0.026 0,2.967 0.664,-0.013 0.78,-0.078 0.781,-0.13 0.755,-0.183 0.741,-0.247 0.664,-0.286 0.625,-0.325 0.611,-0.365 0.598,-0.416 0.547,-0.456 0.533,-0.481 0.482,-0.52 0.403,-0.508 0.365,-0.533 0.325,-0.547 0.286,-0.585 0.234,-0.586 0.195,-0.598 0.157,-0.612 0.103,-0.624 0.066,-0.638 0.013,-0.637 -0.027,-0.638 -0.078,-0.637 -0.117,-0.625 -0.169,-0.611 -0.208,-0.625 -0.26,-0.585 -0.286,-0.573 -0.339,-0.546 -0.364,-0.534 -0.273,-0.338 -0.286,-0.325 -0.456,-0.43 -0.455,-0.416 -0.495,-0.39 -0.507,-0.352 -0.521,-0.325 -0.546,-0.286 -0.559,-0.247 -0.573,-0.208 -0.442,-0.144 -0.573,-0.143 -0.572,-0.117 -0.573,-0.078 -0.598,-0.052 -0.586,-0.013 -0.065,0 z m 23.81,5.465 0,-4.255 -0.481,0.312 0,4.372 0.39,-0.351 0.091,-0.078 z m 0,10.161 0,-5.1 -0.156,0.286 -0.169,0.43 -0.143,0.442 -0.104,0.507 -0.052,0.521 0,0.533 0.039,0.521 0.091,0.507 0.143,0.494 0.169,0.482 0.182,0.377 z m 0,25.332 0,-4.658 -0.156,0.365 -2.043,-5.725 2.199,0 0,-2.967 -3.292,0 -0.234,-0.806 -0.104,-0.482 -0.013,-0.494 0.026,-0.481 0.091,-0.482 0.169,-0.468 0.208,-0.43 0.326,-0.689 -20.987,0 0,1.145 0.026,0.026 0.339,0.429 0.221,0.39 0.221,0.521 0.195,0.611 0.104,0.612 0.026,0.455 0,8.692 -0.039,0.689 -0.078,0.729 -0.143,0.702 -0.247,0.638 -0.339,0.611 -0.286,0.391 0,0.676 7.937,0 -0.39,-0.559 -0.365,-0.586 -0.273,-0.624 -0.221,-0.651 -0.117,-0.663 -0.065,-0.664 -0.026,-0.689 0,-9.941 4.501,0 0.612,0.065 0.611,0.117 0.599,0.17 0.585,0.208 0.547,0.286 0.507,0.351 0.469,0.404 0.234,-0.157 -0.52,-4.046 0.624,0.481 0.52,0.469 0.365,0.39 0.338,0.417 0.299,0.455 0.26,0.481 0.235,0.482 4.436,11.384 0.078,0.261 0.066,0.312 0.052,0.338 0,0.312 -0.052,0.286 -0.105,0.274 -0.156,0.247 -0.195,0.208 -0.234,0.182 2.654,0 z m 0,-12.985 0,2.967 2.186,0 -2.186,5.36 0,4.658 4.138,0 5.477,-13.154 0.377,-0.806 0.43,-0.768 0.52,-0.729 0.573,-0.663 0.611,-0.638 0.69,-0.559 -9.485,0 -0.221,0.247 0.351,0.677 0.169,0.416 0.13,0.442 0.052,0.443 0,0.455 -0.052,0.455 -0.13,0.43 -0.312,0.767 -3.318,0 z m 0,-26.763 0,4.255 0.43,-0.365 0.533,-0.416 0.559,-0.403 0.573,-0.378 0.468,-0.273 0.469,-0.221 0.429,-0.195 0.377,-0.143 0.352,-0.104 0.364,-0.078 0.351,-0.052 0.378,-0.013 0.364,0.013 0.338,0.065 0.325,0.13 0.299,0.182 0.261,0.234 0.169,0.182 0.104,0.182 0.078,0.195 0.052,0.222 0.013,0.208 -0.026,0.182 -0.039,0.182 -0.065,0.169 -0.078,0.157 -0.195,0.299 -0.247,0.273 -0.261,0.247 -0.286,0.221 -0.325,0.209 -0.404,0.221 -2.016,1.014 -0.417,0.222 -0.481,0.286 -0.468,0.312 -0.443,0.325 -0.416,0.352 -0.39,0.39 -0.351,0.429 -0.313,0.456 -0.065,0.143 0,5.1 0.013,0.052 0.234,0.404 0.274,0.377 0.325,0.351 0.351,0.326 0.378,0.299 0.429,0.286 0.455,0.26 0.521,0.234 0.546,0.195 0.56,0.157 0.559,0.104 0.573,0.078 0.585,0.013 0.677,0 0.663,-0.065 0.663,-0.091 0.664,-0.143 0.651,-0.17 0.65,-0.208 0.625,-0.247 0.611,-0.286 0.716,-0.364 0,-4.528 -0.521,0.507 -0.546,0.482 -0.559,0.455 -0.586,0.429 -0.429,0.313 -0.456,0.26 -0.481,0.26 -0.495,0.221 -0.52,0.156 -0.351,0.078 -0.352,0.039 -0.364,-0.013 -0.351,-0.052 -0.234,-0.078 -0.221,-0.104 -0.209,-0.13 -0.195,-0.143 -0.13,-0.169 -0.104,-0.195 -0.065,-0.339 0.039,-0.364 0.117,-0.364 0.195,-0.351 0.286,-0.3 0.378,-0.312 0.429,-0.286 0.69,-0.352 0.975,-0.52 1.106,-0.599 1.08,-0.663 0.495,-0.338 0.494,-0.352 0.43,-0.377 0.39,-0.377 0.312,-0.365 0.273,-0.351 0.208,-0.364 0.17,-0.338 0.208,-0.521 0.13,-0.546 0.078,-0.56 0,-0.559 -0.078,-0.56 -0.143,-0.546 -0.182,-0.469 -0.235,-0.455 -0.273,-0.429 -0.312,-0.417 -0.351,-0.39 -0.378,-0.377 -0.429,-0.365 -0.456,-0.338 -0.481,-0.286 -0.533,-0.273 -0.547,-0.222 -0.559,-0.182 -0.664,-0.169 -0.676,-0.117 -0.69,-0.065 -0.69,-0.026 -0.624,0 -0.612,0.039 -0.624,0.078 -0.611,0.117 -0.612,0.156 -0.599,0.195 -0.572,0.235 -0.546,0.273 -0.521,0.299 -0.039,0.026 z"
         style="fill:#918f90;fill-opacity:1;fill-rule:evenodd;stroke:none"
         id="path5406"
         inkscape:connector-curvature="0" />
    </g>
    <g
       id="g5408"
       transform="matrix(1.2500001,0,0,-1.2500002,643.46854,1021.7083)">
      <path
         d="m 0,0 0,-4.267 -0.06,0.061 -2.284,-4.687 2.344,0 0,-2.103 -3.425,0 -0.841,-1.863 c -0.061,-0.12 -0.12,-0.241 -0.12,-0.361 -0.061,-0.06 -0.061,-0.18 -0.061,-0.24 0,-0.18 0.061,-0.361 0.181,-0.481 0.12,-0.12 0.36,-0.18 0.661,-0.3 l 0,-0.481 -5.168,0 0,0.481 c 0.601,0.18 1.142,0.661 1.502,1.502 0.06,0.12 0.12,0.18 0.12,0.24 l 5.228,10.636 c 0.06,0.12 0.06,0.18 0.12,0.301 0,0.06 0.061,0.18 0.061,0.24 0,0.24 -0.121,0.421 -0.241,0.541 -0.18,0.12 -0.421,0.24 -0.721,0.36 L -2.704,0 0,0 Z m -13.46,-4.627 -0.361,0.18 0,0.06 0,0.12 c 0,0.361 -0.54,0.782 -1.562,1.202 -1.082,0.481 -2.163,0.661 -3.305,0.661 -1.682,0 -2.944,-0.42 -3.966,-1.382 -1.021,-0.901 -1.562,-2.043 -1.562,-3.545 0,-1.382 0.541,-2.584 1.502,-3.425 1.022,-0.901 2.344,-1.322 4.026,-1.322 1.262,0 2.464,0.24 3.666,0.781 1.141,0.541 1.742,0.961 1.742,1.322 0,0 0,0.06 -0.06,0.18 0,0.061 0,0.181 -0.06,0.301 l 0.42,0.12 2.224,-3.245 -0.36,-0.18 c -0.121,0.06 -0.181,0.12 -0.241,0.18 l -0.18,0 c -0.121,0 -0.421,-0.12 -0.962,-0.481 -2.283,-1.261 -4.506,-1.922 -6.67,-1.922 -2.463,0 -4.566,0.721 -6.249,2.223 -1.622,1.502 -2.464,3.305 -2.464,5.468 0,2.223 0.842,4.086 2.524,5.528 1.683,1.502 3.906,2.224 6.61,2.224 1.322,0 2.764,-0.241 4.146,-0.661 1.442,-0.481 2.163,-0.661 2.283,-0.661 l 0.361,0 c 0.12,0 0.24,0.06 0.421,0.06 l 0.421,-0.181 -2.344,-3.605 z M 0,-10.996 l 0,2.103 2.283,0 L 0,-4.267 0,0 l 3.005,0 0,-0.421 c -0.361,-0.12 -0.541,-0.24 -0.722,-0.36 -0.12,-0.12 -0.18,-0.241 -0.18,-0.421 l 0,-0.24 c 0.06,-0.12 0.12,-0.241 0.18,-0.421 l 5.408,-10.636 c 0.361,-0.661 0.601,-1.081 0.842,-1.322 0.24,-0.18 0.48,-0.36 0.841,-0.42 l 0,-0.481 -5.769,0 0,0.481 c 0.301,0.12 0.541,0.18 0.661,0.36 0.181,0.12 0.241,0.241 0.241,0.421 0,0.06 0,0.18 -0.06,0.24 0,0.12 -0.061,0.241 -0.121,0.361 l -0.901,1.863 -3.425,0 z M 21.091,0 l 0,-2.644 -4.026,0 0,-3.365 4.026,0 0,-3.064 -0.3,0.42 -3.726,0 0,-4.627 c 0,-0.3 0,-0.541 0.12,-0.661 0.121,-0.12 0.361,-0.24 0.722,-0.3 l 0,-0.481 -5.228,0 0,0.481 c 0.3,0.06 0.54,0.18 0.601,0.3 0.12,0.12 0.18,0.361 0.18,0.661 l 0,11.838 c 0,0.36 -0.06,0.601 -0.18,0.721 -0.061,0.12 -0.301,0.24 -0.601,0.3 l 0,0.421 8.412,0 z m 0,-9.073 0,3.064 0.18,0 c 1.322,0 2.284,0.12 2.885,0.42 0.661,0.241 0.961,0.722 0.961,1.262 0,0.601 -0.3,1.022 -0.901,1.262 -0.661,0.301 -1.623,0.421 -3.065,0.421 l -0.06,0 0,2.644 1.382,0 c 1.983,0 3.486,-0.361 4.567,-1.142 1.082,-0.721 1.622,-1.803 1.622,-3.125 0,-1.141 -0.3,-2.042 -1.021,-2.764 -0.661,-0.721 -1.682,-1.261 -3.065,-1.502 l 2.885,-4.026 c 0.24,-0.3 0.48,-0.601 0.781,-0.841 0.3,-0.24 0.781,-0.541 1.322,-0.841 l 0,-0.481 -6.189,0 0,0.481 c 0.24,0 0.42,0.12 0.54,0.18 0.181,0.12 0.241,0.24 0.241,0.361 0,0.06 -0.06,0.18 -0.18,0.36 -0.061,0.18 -0.181,0.361 -0.241,0.481 l -2.644,3.786 z M 42.844,0 l 0,-2.824 c -0.301,0 -0.601,0.06 -0.962,0.06 l -3.365,0 0,-9.134 3.365,0 0.962,0 0,-2.764 c -0.361,0 -0.782,-0.06 -1.142,-0.06 l -7.571,0 0,0.481 c 0.3,0.06 0.54,0.18 0.661,0.3 0.06,0.12 0.12,0.361 0.12,0.661 l 0,11.838 c 0,0.36 -0.06,0.601 -0.12,0.721 -0.121,0.12 -0.361,0.24 -0.661,0.3 l 0,0.421 7.571,0 1.142,0 z m 0,-14.662 0,2.764 c 1.262,0.12 2.223,0.541 3.004,1.142 0.841,0.781 1.322,1.923 1.322,3.425 0,1.502 -0.42,2.644 -1.322,3.365 -0.721,0.661 -1.742,1.021 -3.004,1.142 l 0,2.824 c 2.584,-0.12 4.506,-0.721 5.828,-1.803 1.503,-1.202 2.284,-3.064 2.284,-5.528 0,-2.464 -0.781,-4.326 -2.284,-5.588 -1.322,-1.022 -3.244,-1.623 -5.828,-1.743 m 19.949,15.022 0,-2.944 c -1.502,0 -2.704,-0.481 -3.665,-1.322 -0.901,-0.901 -1.382,-2.043 -1.382,-3.425 0,-1.382 0.481,-2.524 1.382,-3.425 0.961,-0.841 2.163,-1.322 3.665,-1.322 l 0,-2.944 c -2.524,0 -4.566,0.781 -6.249,2.223 -1.622,1.442 -2.464,3.305 -2.464,5.468 0,2.163 0.842,4.026 2.464,5.468 1.622,1.502 3.725,2.223 6.249,2.223 m 26.56,-9.734 0,7.932 c 0,0.3 -0.12,0.541 -0.241,0.721 -0.12,0.12 -0.3,0.24 -0.661,0.3 l 0,0.421 4.747,0 0,-0.421 c -0.3,-0.06 -0.54,-0.18 -0.6,-0.3 -0.12,-0.12 -0.181,-0.361 -0.181,-0.721 l 0,-11.838 c 0,-0.3 0.061,-0.541 0.181,-0.661 0.06,-0.12 0.3,-0.24 0.6,-0.3 l 0,-0.481 -5.347,0 0,0.481 c 0.24,0.06 0.36,0.12 0.48,0.18 0.12,0.12 0.241,0.24 0.241,0.3 0,0.061 -0.06,0.181 -0.121,0.241 0,0.06 -0.06,0.12 -0.12,0.18 l -8.593,8.412 0,-8.352 c 0,-0.3 0.06,-0.541 0.181,-0.661 0.12,-0.12 0.36,-0.24 0.661,-0.3 l 0,-0.481 -4.748,0 0,0.481 c 0.361,0.06 0.541,0.18 0.661,0.3 0.121,0.12 0.181,0.361 0.181,0.661 l 0,11.838 c 0,0.36 -0.06,0.601 -0.181,0.721 -0.12,0.12 -0.3,0.24 -0.661,0.3 l 0,0.421 5.769,0 0,-0.421 c -0.24,-0.06 -0.42,-0.12 -0.481,-0.24 -0.12,-0.06 -0.18,-0.12 -0.18,-0.24 0,-0.061 0,-0.121 0.06,-0.181 0.06,-0.06 0.12,-0.18 0.241,-0.24 l 8.112,-8.052 z m -26.56,-5.648 0,2.944 c 1.562,0 2.764,0.481 3.666,1.382 0.961,0.841 1.442,1.983 1.442,3.365 0,1.382 -0.481,2.524 -1.442,3.425 -0.902,0.841 -2.104,1.322 -3.666,1.322 l 0,2.944 c 2.584,0 4.687,-0.721 6.31,-2.163 1.622,-1.502 2.463,-3.305 2.463,-5.528 0,-2.163 -0.841,-4.026 -2.463,-5.468 -1.683,-1.442 -3.726,-2.163 -6.31,-2.223"
         style="fill:#918f90;fill-opacity:1;fill-rule:evenodd;stroke:none"
         id="path5410"
         inkscape:connector-curvature="0" />
    </g>
    <g
       id="g5412"
       transform="matrix(1.2500001,0,0,-1.2500002,687.7368,1001.1623)">
      <path
         d="m 0,0 -0.04,0 0,-0.282 0.141,0 -0.141,0 0,-0.12 -0.04,0 C 0,-0.905 0.101,-1.789 0.101,-2.433 l 0,-2.252 0.321,0 -0.321,-0.321 0,-0.322 0.321,0 -0.321,0 c 1.286,-0.321 -5.429,-1.628 -3.499,0.643 -0.261,0.945 -0.321,2.634 -0.321,4.283 l -0.041,0 0,1.126 0.041,0 c -0.061,1.769 0,5.971 0,6.192 l 0,1.628 -0.322,0.322 0.322,0 0,0.342 0,1.608 -0.322,0 0.322,0 c 0,0.302 -0.322,0.965 -0.644,1.287 -0.321,0 -0.321,0.322 -0.643,0.322 l -0.322,0 0.322,0 c -0.322,0.322 -0.643,0.643 -1.287,0.965 l 0,-0.322 0,0.322 -0.322,0.322 c -0.643,0.643 -0.965,1.286 -0.965,1.93 l -0.321,0.321 0.321,0 c -0.321,0.322 -0.321,0.985 -0.643,1.629 l 0,3.86 -0.342,0.321 0.342,0 c 0,0.322 -0.342,0.644 -0.342,0.966 l 0,0.321 0,0.644 -0.301,0.321 0.301,0 c 0.342,0.342 0.342,0.644 0.664,0.965 l -0.322,0 0.322,0 0.321,0.322 0,0.322 0,-0.322 0.644,0 c 0.321,0 0.321,-0.322 0.643,-0.322 0,-0.321 0.322,-0.321 0.322,-0.623 l 0,-0.342 0.322,0 -0.322,0 0,-1.608 0.322,0.322 -0.322,-0.322 c 0,0 0.322,-0.322 0.322,-0.644 l 0,-0.321 0,-2.252 0.321,0.322 -0.321,-0.322 c 0,-0.643 0.321,-1.287 0.321,-1.95 l 0.322,0 -0.322,0 c 0.322,-0.643 0.644,-0.965 0.965,-1.287 0.965,-0.321 0.965,1.287 0.965,1.287 l 0,0.663 -0.321,0 0.321,0 0,3.217 -0.321,0 0.321,0 0,0.643 -0.321,0 0.321,0 0,0.966 -0.321,0 0.321,0 c 0,0.643 -0.321,1.286 -0.321,1.93 l -0.322,0.321 0.322,0 0,0.644 0,0.643 0,0.985 -0.322,0.322 0.322,0 0,1.93 -0.322,0 0.322,0 0,0.965 -0.322,0 0.322,0 0,1.287 0,0.342 -0.322,0.301 0.322,0 0,0.322 -0.322,0 0.322,0 0,0.342 c 0,0.301 0.321,0.643 0.321,0.643 l 0,0.301 0,-0.301 c 0,0.301 0.322,0.301 0.322,0.301 l 0.322,0 0,0.322 0.321,0 c 0.322,0 0.644,-0.322 0.945,-0.322 l 0,-0.301 0.322,-0.342 0,0.342 0,-0.342 c 0,-0.301 0.302,-0.301 0.302,-0.643 l 0,-0.322 0,-0.301 0.341,0 -0.341,0 0,-0.664 0,-0.965 0.341,0 -0.341,0 0,-0.322 0.341,0 -0.341,0 0,-0.321 0,-0.322 0.341,0 -0.341,0 0,-0.965 0.341,0 -0.341,0 0,-0.965 0.341,0 -0.341,0 0,-0.643 0,-0.342 0,-1.287 0.341,0 -0.341,0 c 0,-0.322 0.341,-0.643 0.341,-0.945 l 0,-0.342 0,-0.321 0,-0.965 0,-1.287 0,-0.322 0,-0.965 0.302,0 -0.302,0 0,-0.965 0.302,0 -0.302,0 0,-0.321 0.302,0 -0.302,-0.322 0,-0.965 0.302,0 -0.302,0 0,-0.342 0.302,-0.302 -0.302,0 0,-0.663 0.302,-0.322 -0.302,0 c 0,-1.93 0.302,-3.86 0.945,-3.86 l 0,0.322 0,-0.322 c 0.322,0 0.322,0 0.644,0.322 l 0,0.322 0.321,0 0,0.321 -0.321,0 0.321,0 0,0.644 0,2.251 0,0.985 0,1.609 0,0.322 0,0.321 c 0,0.322 0.322,0.644 0.322,0.965 0.322,0.322 0.322,0.644 0.643,0.644 l 0,0.321 0,-0.321 0.322,0 0,0.321 0,-0.321 c 0.322,0 0.643,0 0.965,-0.322 0,0 0,-0.322 0.322,-0.322 l 0,-0.321 c 0,0 0.321,-0.644 0.321,-0.965 l 0,-0.322 C 3.961,17.913 3.961,17.592 3.961,16.948 l 0.321,0 -0.321,0 0,-0.341 0.321,0 -0.321,0 0,-0.644 0.321,0 -0.321,0 0,-0.965 0.321,0 -0.321,0 0,-0.965 0.321,0 -0.321,-0.321 c 0,-0.644 0,-1.287 -0.322,-1.609 l 0.322,0 -0.322,-0.322 0,-0.321 0.322,-0.342 -0.322,0 C 3.317,9.851 2.674,9.208 1.387,8.544 l -0.643,0 C 0.101,8.243 0.101,7.901 -0.221,7.6 l 0.322,0 -0.322,-0.342 0,-0.342 0,-0.322 C -0.221,6.594 0.08,0.241 0,0"
         style="fill:#918f90;fill-opacity:1;fill-rule:evenodd;stroke:none"
         id="path5414"
         inkscape:connector-curvature="0" />
    </g>
    <g
       id="g5416"
       transform="matrix(1.2500001,0,0,-1.2500002,1142.8673,1009.611)">
      <path
         d="M 0,0 C 0.166,0.293 0.397,0.526 0.693,0.693 0.99,0.845 1.297,0.938 1.604,0.938 l 0.012,0 C 1.925,0.938 2.232,0.845 2.527,0.693 2.825,0.526 3.055,0.293 3.222,0 c 0.167,-0.297 0.24,-0.604 0.24,-0.937 0,-0.319 -0.073,-0.629 -0.24,-0.924 C 3.067,-2.144 2.836,-2.377 2.539,-2.544 2.246,-2.71 1.937,-2.784 1.616,-2.784 l -0.012,0 c -0.322,0 -0.628,0.074 -0.926,0.24 -0.293,0.167 -0.523,0.4 -0.678,0.683 -0.167,0.295 -0.257,0.605 -0.257,0.924 0,0.333 0.09,0.64 0.257,0.937 m 0.5,-2.863 c 0.359,-0.204 0.718,-0.292 1.104,-0.292 l 0.012,0 c 0.385,0 0.744,0.088 1.104,0.292 0.359,0.193 0.628,0.465 0.821,0.824 0.207,0.359 0.295,0.73 0.295,1.102 0,0.399 -0.088,0.771 -0.295,1.125 C 3.348,0.552 3.067,0.823 2.706,1.012 2.351,1.204 1.987,1.309 1.616,1.309 l -0.012,0 C 1.23,1.295 0.871,1.204 0.511,1.012 0.155,0.823 -0.114,0.552 -0.319,0.188 c -0.207,-0.354 -0.297,-0.726 -0.297,-1.125 0,-0.372 0.09,-0.743 0.297,-1.102 C -0.126,-2.398 0.14,-2.67 0.5,-2.863"
         style="fill:#918f90;fill-opacity:1;fill-rule:nonzero;stroke:none"
         id="path5418"
         inkscape:connector-curvature="0" />
    </g>
    <g
       id="g5420"
       transform="matrix(1.2500001,0,0,-1.2500002,1144.1314,1009.724)">
      <path
         d="M 0,0 0.452,0 0.593,0 C 0.707,-0.014 0.788,-0.026 0.835,-0.04 0.914,-0.064 0.964,-0.102 1.007,-0.166 1.042,-0.219 1.054,-0.281 1.054,-0.359 1.054,-0.462 1.016,-0.552 0.94,-0.614 0.876,-0.681 0.759,-0.707 0.593,-0.719 l -0.115,0 L 0,-0.719 0,0 Z m 0,-1.052 0.233,0 c 0.141,0 0.245,-0.026 0.307,-0.093 0.029,-0.011 0.041,-0.021 0.053,-0.038 0.102,-0.088 0.216,-0.269 0.361,-0.511 l 0.219,-0.386 0.459,0 -0.283,0.476 c -0.14,0.219 -0.269,0.386 -0.359,0.474 -0.05,0.052 -0.114,0.09 -0.202,0.131 0.202,0.009 0.368,0.088 0.499,0.219 0.127,0.126 0.188,0.28 0.188,0.459 0,0.128 -0.035,0.245 -0.114,0.345 -0.074,0.114 -0.178,0.193 -0.307,0.233 -0.1,0.038 -0.257,0.064 -0.461,0.064 -0.036,0 -0.088,0.01 -0.141,0.01 l -0.837,0 0,-2.411 0.385,0 0,1.028 z"
         style="fill:#918f90;fill-opacity:1;fill-rule:nonzero;stroke:none"
         id="path5422"
         inkscape:connector-curvature="0" />
    </g>
    <g
       id="g5424"
       transform="matrix(1.2500001,0,0,-1.2500002,1072.0974,1010.063)">
      <path
         d="M 0,0 3.465,0 0,5.775 -2.927,10.639 -15.363,3.172 -13.464,0 0,0 Z"
         style="fill:#918f90;fill-opacity:1;fill-rule:nonzero;stroke:none"
         id="path5426"
         inkscape:connector-curvature="0" />
    </g>
    <g
       id="g5428"
       transform="matrix(1.2500001,0,0,-1.2500002,1112.3901,1010.063)">
      <path
         d="M 0,0 6.392,0 16.924,0 6.392,17.557 -5.264,36.934 -10.061,34.045 -17.683,29.462 -10.061,16.772 0,0 Z"
         style="fill:#918f90;fill-opacity:1;fill-rule:nonzero;stroke:none"
         id="path5430"
         inkscape:connector-curvature="0" />
    </g>
    <g
       id="g5432"
       transform="matrix(1.2500001,0,0,-1.2500002,1104.9957,1026.295)">
      <path
         d="m 0,0 c -0.374,-1.925 -2.08,-3.4 -4.107,-3.4 l -0.038,0 c -2.297,0.026 -4.16,1.898 -4.16,4.195 0,2.296 1.863,4.171 4.16,4.183 l 0.038,0 C -2.08,4.978 -0.374,3.517 0,1.589 L 0,0 Z m 0,7.198 c -1.192,0.771 -2.591,1.221 -4.107,1.221 l -0.038,0 c -4.181,-0.026 -7.584,-3.441 -7.584,-7.624 0,-4.181 3.403,-7.596 7.584,-7.622 l 0.038,0 c 1.516,0 2.915,0.45 4.107,1.221 l 0,-0.797 3.505,0 0,7.198 0,12.191 -3.505,0 0,-5.788 z"
         style="fill:#918f90;fill-opacity:1;fill-rule:nonzero;stroke:none"
         id="path5434"
         inkscape:connector-curvature="0" />
    </g>
    <g
       id="g5436"
       transform="matrix(1.2500001,0,0,-1.2500002,1125.5555,1026.295)">
      <path
         d="m 0,0 c -0.369,-1.925 -2.078,-3.4 -4.105,-3.4 l -0.036,0 c -2.298,0.026 -4.159,1.898 -4.159,4.195 0,2.296 1.861,4.171 4.159,4.183 l 0.027,0 C -2.078,4.978 -0.369,3.517 0,1.589 L 0,0 Z m 0,7.198 c -1.178,0.771 -2.591,1.221 -4.105,1.221 l -0.036,0 c -4.185,-0.026 -7.586,-3.441 -7.586,-7.624 0,-4.181 3.401,-7.596 7.586,-7.622 l 0.027,0 c 1.523,0 2.936,0.45 4.114,1.221 l 0,-0.797 3.507,0 0,7.198 0,7.239 -3.507,0 0,-0.836 z"
         style="fill:#918f90;fill-opacity:1;fill-rule:nonzero;stroke:none"
         id="path5438"
         inkscape:connector-curvature="0" />
    </g>
    <g
       id="g5440"
       transform="matrix(1.2500001,0,0,-1.2500002,1145.5145,1024.1148)">
      <path
         d="m 0,0 c -0.131,0.064 -0.309,0.131 -0.514,0.205 -0.78,0.271 -2.054,0.604 -3.824,0.989 -1.552,0.346 -2.337,0.798 -2.337,1.362 0,0.397 0.141,0.718 0.412,0.949 0.359,0.307 0.999,0.46 1.925,0.46 0.935,0 1.616,-0.205 2.016,-0.6 0.245,-0.245 0.423,-0.683 0.537,-1.299 l 1.271,0 2.451,0 c 0,1.825 -0.745,3.133 -2.208,3.926 -0.076,0.052 -0.153,0.09 -0.243,0.131 -1.014,0.473 -2.361,0.718 -4.041,0.718 -2.041,0 -3.581,-0.54 -4.606,-1.63 -0.822,-0.87 -1.221,-1.937 -1.221,-3.198 0,-1.563 0.771,-2.691 2.334,-3.424 0.59,-0.281 2.028,-0.681 4.312,-1.169 1.528,-0.333 2.296,-0.804 2.296,-1.408 0,-0.36 -0.152,-0.669 -0.485,-0.95 -0.424,-0.359 -1.064,-0.542 -1.925,-0.542 -1.142,0 -1.949,0.195 -2.425,0.569 -0.474,0.357 -0.719,0.882 -0.719,1.549 l -3.902,0 c 0,-1.769 0.747,-3.094 2.244,-3.965 1.194,-0.68 2.762,-1.025 4.697,-1.025 1.299,0 2.453,0.218 3.441,0.64 0.205,0.09 0.383,0.178 0.581,0.283 1.523,0.849 2.294,2.194 2.294,4.045 C 2.361,-1.873 1.578,-0.742 0,0"
         style="fill:#918f90;fill-opacity:1;fill-rule:nonzero;stroke:none"
         id="path5442"
         inkscape:connector-curvature="0" />
    </g>
    <g
       id="g5444"
       transform="matrix(1.2500001,0,0,-1.2500002,1056.5227,1026.295)">
      <path
         d="m 0,0 c -0.374,-1.925 -2.08,-3.4 -4.124,-3.4 l -0.035,0 c -2.285,0.026 -4.146,1.898 -4.146,4.195 0,2.296 1.861,4.171 4.146,4.183 l 0.035,0 C -2.08,4.978 -0.374,3.517 0,1.589 L 0,0 Z m 0,7.198 c -1.194,0.771 -2.608,1.221 -4.124,1.221 l -0.035,0 c -4.172,-0.026 -7.572,-3.441 -7.572,-7.624 0,-4.181 3.4,-7.596 7.572,-7.622 l 0.035,0 c 1.516,0 2.93,0.45 4.124,1.221 l 0,-0.797 3.5,0 0,7.198 0,7.239 -3.5,0 0,-0.836 z"
         style="fill:#918f90;fill-opacity:1;fill-rule:nonzero;stroke:none"
         id="path5446"
         inkscape:connector-curvature="0" />
    </g>
    <path
       d="m 1083.8522,1014.344 4.765,0 0,-4.185 -4.765,0 0,4.185 z"
       style="fill:#918f90;fill-opacity:1;fill-rule:nonzero;stroke:none"
       id="path5448"
       inkscape:connector-curvature="0" />
    <path
       d="m 1083.8522,1034.299 4.765,0 0,-18.5287 -4.765,0 0,18.5287 z"
       style="fill:#918f90;fill-opacity:1;fill-rule:nonzero;stroke:none"
       id="path5450"
       inkscape:connector-curvature="0" />
    <g
       id="g5452"
       transform="matrix(1.2500001,0,0,-1.2500002,1077.2909,1026.295)">
      <path
         d="m 0,0 c -0.371,-1.925 -2.078,-3.4 -4.119,-3.4 l -0.036,0 c -2.296,0.026 -4.159,1.898 -4.159,4.195 0,2.296 1.863,4.171 4.159,4.183 l 0.036,0 C -2.078,4.978 -0.371,3.517 0,1.589 L 0,0 Z m 0,7.198 c -1.19,0.771 -2.603,1.221 -4.119,1.221 l -0.036,0 c -4.186,-0.026 -7.584,-3.441 -7.584,-7.624 0,-4.181 3.398,-7.596 7.584,-7.622 l 0.036,0 c 1.516,0 2.929,0.45 4.119,1.221 l 0,-0.797 3.505,0 0,7.198 0,12.191 -3.505,0 0,-5.788 z"
         style="fill:#918f90;fill-opacity:1;fill-rule:nonzero;stroke:none"
         id="path5454"
         inkscape:connector-curvature="0" />
    </g>
    <g
       id="g5456"
       transform="matrix(1.2500001,0,0,-1.2500002,1104.9778,1010.063)">
      <path
         d="M 0,0 -4.131,6.906 -14.28,23.794 -26.304,16.553 -26.718,16.312 -26.304,15.629 -16.914,0 -4.131,0 0,0 Z"
         style="fill:#918f90;fill-opacity:1;fill-rule:nonzero;stroke:none"
         id="path5458"
         inkscape:connector-curvature="0" />
    </g>
  </g>
</svg>
